<?xml version="1.0" encoding="UTF-8"?>
<svg version="1.1" xmlns="http://www.w3.org/2000/svg" viewBox="-2 -2 738 167">
    <g stroke="#FFFFFF" stroke-width="0.4">
<path d="M0 0 C1.28043938 -0.01713043 1.28043938 -0.01713043 2.58674622 -0.03460693 C3.51514313 -0.03684265 4.44354004 -0.03907837 5.40007019 -0.04138184 C6.87637657 -0.05627655 6.87637657 -0.05627655 8.38250732 -0.07147217 C11.6386342 -0.10068334 14.89456623 -0.1143136 18.15080261 -0.12536621 C20.41518153 -0.13687158 22.67956039 -0.14838702 24.94393921 -0.15991211 C29.69267179 -0.1809228 34.44133673 -0.19261425 39.19010925 -0.19958496 C45.27001667 -0.21055421 51.34902821 -0.2586108 57.42865467 -0.31552887 C62.10673623 -0.35280784 66.78460251 -0.36319414 71.46282005 -0.36625671 C73.70390917 -0.3723048 75.94499471 -0.38834543 78.18593788 -0.41462708 C81.32441163 -0.44880812 84.46070367 -0.44497639 87.59928894 -0.43200684 C88.52161316 -0.4504364 89.44393738 -0.46886597 90.39421082 -0.487854 C96.14993537 -0.41348899 99.212167 0.73413114 103.41974926 4.7004776 C106.32848036 8.30871691 105.84818401 12.50086548 105.85490417 16.88586426 C105.86235153 18.04490265 105.86235153 18.04490265 105.86994934 19.22735596 C105.88455774 21.78427012 105.89137053 24.34112225 105.89689636 26.89807129 C105.90264862 28.67542523 105.90840635 30.45277915 105.91416931 32.23013306 C105.92467534 35.95750213 105.9305207 39.68484965 105.93400574 43.41223145 C105.93949157 48.18612883 105.96352313 52.95974115 105.99197769 57.73354912 C106.01060928 61.40529206 106.01580993 65.07696638 106.01734161 68.74875259 C106.02036717 70.50860275 106.02839246 72.26845172 106.04152679 74.02825546 C106.05859938 76.49142861 106.05670435 78.9539058 106.05021667 81.41711426 C106.05943146 82.14248383 106.06864624 82.86785339 106.07814026 83.61520386 C106.03388057 88.98495252 104.62988074 92.02208952 101.19377136 96.03088379 C98.51265981 98.26514341 95.87812458 98.40862064 92.53903198 98.42805481 C91.69374939 98.43521011 90.8484668 98.44236542 89.97756958 98.44973755 C88.59125084 98.4537709 88.59125084 98.4537709 87.17692566 98.45788574 C85.71305923 98.46774254 85.71305923 98.46774254 84.21961975 98.47779846 C80.98574244 98.49753086 77.75191155 98.50919333 74.51799011 98.51916504 C73.41394144 98.52324057 72.30989277 98.52731609 71.17238808 98.53151512 C65.32998974 98.55237458 59.4876149 98.56667744 53.64518738 98.5760498 C47.60909798 98.58712017 41.57337662 98.62152798 35.53741741 98.6612215 C30.89713858 98.6873562 26.25694791 98.69573881 21.61660194 98.69933128 C19.39145736 98.70420455 17.1663169 98.71583948 14.94124413 98.73436928 C11.82679867 98.75869546 8.71331187 98.75780745 5.59880066 98.75085449 C4.68066086 98.76366455 3.76252106 98.77647461 2.81655884 98.78967285 C-2.69208621 98.74486889 -6.01520281 98.08336252 -10.30622864 94.28088379 C-13.01375536 90.77463638 -12.60194142 86.64515493 -12.59675598 82.39465332 C-12.60347321 81.60391418 -12.61019043 80.81317505 -12.61711121 79.99847412 C-12.63609472 77.38681742 -12.64001557 74.77541767 -12.64216614 72.16369629 C-12.64859385 70.34532567 -12.65532219 68.52695609 -12.66233826 66.70858765 C-12.67431191 62.89721275 -12.67801899 59.08592851 -12.67683411 55.27453613 C-12.67663092 50.39639739 -12.7039324 45.51884123 -12.73837852 40.64084053 C-12.76064234 36.88497256 -12.76467181 33.12924491 -12.76361465 29.37331772 C-12.76597142 27.57521431 -12.77479921 25.77710707 -12.79027939 23.97906876 C-12.80992913 21.46093482 -12.80410592 18.94405856 -12.79206848 16.42590332 C-12.8033075 15.6869986 -12.81454651 14.94809387 -12.8261261 14.1867981 C-12.76440468 9.09229887 -11.59327804 6.1548143 -8.30622864 2.28088379 C-5.46019542 0.53644292 -3.31699926 0.02668893 0 0 Z M1.69377136 13.28088379 C1.69377136 36.71088379 1.69377136 60.14088379 1.69377136 84.28088379 C31.39377136 84.28088379 61.09377136 84.28088379 91.69377136 84.28088379 C91.69377136 60.85088379 91.69377136 37.42088379 91.69377136 13.28088379 C61.99377136 13.28088379 32.29377136 13.28088379 1.69377136 13.28088379 Z " fill="#000000" transform="translate(504.3062286376953,0.7191162109375)"/>
<path d="M0 0 C0.95658005 -0.00058411 1.9131601 -0.00116821 2.89872742 -0.00177002 C6.05354376 0.00101175 9.2074097 0.03210885 12.36206055 0.06347656 C14.55209334 0.0709386 16.74213282 0.07663171 18.93217468 0.08062744 C24.69119765 0.09588657 30.44981592 0.13517126 36.2086792 0.17944336 C42.08722459 0.22038976 47.96583548 0.23863714 53.84448242 0.25878906 C65.37525901 0.30166485 76.90573547 0.36991994 88.4362793 0.45410156 C88.4362793 4.74410156 88.4362793 9.03410156 88.4362793 13.45410156 C58.4062793 13.45410156 28.3762793 13.45410156 -2.5637207 13.45410156 C-2.5637207 22.69410156 -2.5637207 31.93410156 -2.5637207 41.45410156 C23.5062793 41.45410156 49.5762793 41.45410156 76.4362793 41.45410156 C76.4362793 46.07410156 76.4362793 50.69410156 76.4362793 55.45410156 C50.3662793 55.45410156 24.2962793 55.45410156 -2.5637207 55.45410156 C-2.5637207 65.02410156 -2.5637207 74.59410156 -2.5637207 84.45410156 C27.4662793 84.45410156 57.4962793 84.45410156 88.4362793 84.45410156 C88.4362793 89.07410156 88.4362793 93.69410156 88.4362793 98.45410156 C75.87543919 98.52359482 63.31464478 98.57690952 50.75365162 98.60953808 C44.92114792 98.6251977 39.08877569 98.64644164 33.25634766 98.68041992 C27.62832534 98.71300241 22.00042953 98.73095235 16.37232018 98.73873329 C14.22450456 98.74427876 12.0766959 98.75510762 9.9289341 98.77129173 C6.92187124 98.79305095 3.91533197 98.79606908 0.90820312 98.79467773 C0.01915787 98.80546356 -0.86988739 98.81624939 -1.78587341 98.82736206 C-6.55437424 98.80346879 -9.68013568 98.53383375 -13.5637207 95.45410156 C-17.79824363 90.76587976 -17.71508408 86.1112307 -17.72485352 80.02685547 C-17.72981842 79.28488419 -17.73478333 78.5429129 -17.73989868 77.77845764 C-17.75447779 75.32918361 -17.76131481 72.87997432 -17.7668457 70.43066406 C-17.77260018 68.72439574 -17.77835787 67.01812743 -17.78411865 65.31185913 C-17.79461621 61.73589782 -17.80046718 58.15995892 -17.80395508 54.58398438 C-17.80944051 50.00862638 -17.83347475 45.43356587 -17.86192703 40.85830116 C-17.88057674 37.33406719 -17.88576023 33.8099046 -17.88729095 30.28562546 C-17.89031219 28.59916938 -17.89832286 26.9127144 -17.91147614 25.22630692 C-17.92858752 22.86402151 -17.92664438 20.50245946 -17.92016602 18.14013672 C-17.9293808 17.44798569 -17.93859558 16.75583466 -17.9480896 16.04270935 C-17.89791907 10.18387067 -16.34633576 6.45581602 -12.47395325 2.10748291 C-8.29613054 -0.26605049 -4.72745183 -0.07567484 0 0 Z " fill="#000000" transform="translate(392.563720703125,0.5458984375)"/>
<path d="M0 0 C14.10815422 -0.09267233 28.21623606 -0.1637513 42.32463264 -0.20724869 C48.8757108 -0.22812505 55.42658074 -0.25644436 61.97753906 -0.30175781 C68.29934613 -0.34521266 74.6209529 -0.36913673 80.9428978 -0.37950897 C83.35505197 -0.3869009 85.76719515 -0.40133548 88.17926407 -0.42292023 C91.55741332 -0.45194837 94.93473441 -0.4559561 98.31298828 -0.45410156 C99.31064713 -0.46848267 100.30830597 -0.48286377 101.3361969 -0.49768066 C107.03424419 -0.46382296 110.58630862 0.00924192 115 4 C117.70752672 7.50624741 117.29571278 11.63572885 117.29052734 15.88623047 C117.29724457 16.6769696 117.30396179 17.46770874 117.31088257 18.28240967 C117.32986608 20.89406636 117.33378693 23.50546612 117.3359375 26.1171875 C117.34236521 27.93555812 117.34909355 29.7539277 117.35610962 31.57229614 C117.36808328 35.38367104 117.37179035 39.19495528 117.37060547 43.00634766 C117.37040228 47.8844864 117.39770376 52.76204255 117.43214989 57.64004326 C117.4544137 61.39591123 117.45844317 65.15163887 117.45738602 68.90756607 C117.45974278 70.70566948 117.46857057 72.50377671 117.48405075 74.30181503 C117.50370049 76.81994897 117.49787728 79.33682523 117.48583984 81.85498047 C117.49707886 82.59388519 117.50831787 83.33278992 117.51989746 84.09408569 C117.45817604 89.18858492 116.2870494 92.12606949 113 96 C110.04663429 97.83338981 107.83149897 98.24845968 104.38092041 98.24050903 C103.45827896 98.24325836 102.53563751 98.24600769 101.58503723 98.24884033 C100.58018784 98.24164978 99.57533844 98.23445923 98.54003906 98.22705078 C97.47631577 98.22734283 96.41259247 98.22763489 95.31663513 98.22793579 C91.79954887 98.2265421 88.28267427 98.21097882 84.765625 98.1953125 C82.32753617 98.19158252 79.88944584 98.18873547 77.45135498 98.18673706 C71.03322209 98.17909948 64.61517966 98.15944982 58.19708252 98.1373291 C50.49700286 98.11327714 42.79689297 98.10409029 35.0967865 98.09242249 C23.39779474 98.07302561 11.6990015 98.0347037 0 98 C0 73.25 0 48.5 0 23 C4.62 23 9.24 23 14 23 C14 43.13 14 63.26 14 84 C43.37 84 72.74 84 103 84 C103 60.57 103 37.14 103 13 C69.01 13 35.02 13 0 13 C0 8.71 0 4.42 0 0 Z " fill="#000000" transform="translate(246,1)"/>
<path d="M0 0 C6.71933768 1.46511874 11.39339229 7.08083375 16.03515625 11.81640625 C16.70329346 12.49098877 17.37143066 13.16557129 18.05981445 13.8605957 C21.78388736 17.64312126 25.37459785 21.48789512 28.796875 25.546875 C31.78113096 28.89364362 35.00915477 31.99728856 38.19824219 35.14746094 C40.92226513 37.85101533 43.55130843 40.57408076 46.03515625 43.50390625 C49.19775585 47.22598293 52.62736039 50.63506965 56.09765625 54.06640625 C60.14433131 58.06765134 64.0260461 62.10579375 67.703125 66.453125 C70.84868757 69.96188654 74.23035861 73.23884293 77.59985352 76.53149414 C81.49552523 80.36214421 81.49552523 80.36214421 82.59765625 82.56640625 C82.92765625 55.83640625 83.25765625 29.10640625 83.59765625 1.56640625 C88.54765625 1.56640625 93.49765625 1.56640625 98.59765625 1.56640625 C98.62032596 11.67674835 98.63863977 21.78707333 98.64946842 31.89743519 C98.65466787 36.59301009 98.66171165 41.28856656 98.6730957 45.98413086 C98.68402964 50.52288174 98.68995517 55.06161499 98.69253349 59.60037804 C98.69436892 61.32455408 98.69795273 63.04872926 98.70338631 64.77289772 C98.78293327 91.08140749 98.78293327 91.08140749 93.59765625 99.56640625 C91.19699127 100.76673874 89.52673805 100.80178117 86.84765625 100.87890625 C86.0071875 100.91628906 85.16671875 100.95367187 84.30078125 100.9921875 C77.51585602 99.92346373 72.76609754 94.01544387 68.16015625 89.31640625 C67.49274414 88.64254883 66.82533203 87.96869141 66.13769531 87.27441406 C62.39148245 83.46935053 58.77558365 79.60209338 55.33203125 75.51953125 C52.57770245 72.41780962 49.59511224 69.54374866 46.64355469 66.63183594 C43.41717673 63.43206728 40.41812585 60.11541866 37.47265625 56.66015625 C35.11420377 54.02655098 32.61320221 51.54814111 30.09765625 49.06640625 C26.38051953 45.39923105 22.86300297 41.63802999 19.4765625 37.6640625 C16.26178217 34.07500422 12.78923317 30.74047195 9.34375 27.375 C6.28128239 24.24283184 3.44847795 20.89236489 0.59765625 17.56640625 C0.26765625 44.62640625 -0.06234375 71.68640625 -0.40234375 99.56640625 C-5.02234375 99.56640625 -9.64234375 99.56640625 -14.40234375 99.56640625 C-14.44878834 88.63923734 -14.48427444 77.71209211 -14.50596809 66.7848444 C-14.51638261 61.7102871 -14.5304991 56.63579759 -14.55322266 51.5612793 C-14.57503434 46.6594368 -14.5869299 41.75765932 -14.59209824 36.85577202 C-14.59577908 34.99038101 -14.6029667 33.12499336 -14.61380386 31.2596302 C-14.62842956 28.63663306 -14.63031709 26.01390082 -14.62939453 23.39086914 C-14.63658508 22.62841385 -14.64377563 21.86595856 -14.65118408 21.08039856 C-14.62631925 14.50023464 -14.05505095 8.09711416 -10.40234375 2.50390625 C-6.72644414 0.12988775 -4.29098409 0.00680029 0 0 Z " fill="#000000" transform="translate(636.40234375,-0.56640625)"/>
<path d="M0 0 C4.62 0 9.24 0 14 0 C14 13.53 14 27.06 14 41 C42.05 41 70.1 41 99 41 C99 27.47 99 13.94 99 0 C103.95 0 108.9 0 114 0 C114 32.34 114 64.68 114 98 C109.05 98 104.1 98 99 98 C99 83.81 99 69.62 99 55 C70.95 55 42.9 55 14 55 C14 69.19 14 83.38 14 98 C9.38 98 4.76 98 0 98 C0 65.66 0 33.32 0 0 Z " fill="#000000" transform="translate(0,1)"/>
<path d="M0 0 C0.84122406 -0.0127597 1.68244812 -0.02551941 2.54916382 -0.03866577 C3.45026886 -0.04089142 4.3513739 -0.04311707 5.27978516 -0.04541016 C6.21432526 -0.05206696 7.14886536 -0.05872375 8.11172485 -0.06558228 C10.08699579 -0.07569813 12.06230084 -0.08039963 14.03759766 -0.08007812 C17.05119494 -0.08444706 20.0633223 -0.1207661 23.07666016 -0.15869141 C24.99853016 -0.16456072 26.92040711 -0.16852935 28.84228516 -0.17041016 C30.18787003 -0.19196671 30.18787003 -0.19196671 31.56063843 -0.21395874 C37.06434387 -0.17400052 40.51049623 0.36616376 44.69384766 4.29052734 C49.04362819 11.298822 51.19453458 19.35892079 53.72119141 27.16552734 C54.19622831 28.61808793 54.67178881 30.07047738 55.14784241 31.52270508 C56.39595288 35.33529328 57.63642555 39.15032498 58.87542725 42.96588135 C59.87496813 46.03972177 60.87987157 49.11179518 61.88510799 52.18377686 C63.10310576 55.90627189 64.31876847 59.62952776 65.53369141 63.35302734 C65.75791212 64.04015808 65.98213284 64.72728882 66.21314812 65.4352417 C67.71754714 70.05021546 69.20934484 74.66911908 70.69384766 79.29052734 C70.92787922 80.01568542 71.16191078 80.74084351 71.40303421 81.48797607 C72.11220318 83.69021086 72.81509243 85.89435829 73.51635742 88.09912109 C73.84424838 89.11390282 73.84424838 89.11390282 74.17876339 90.14918518 C75.07538086 92.98844474 75.69384766 95.29186268 75.69384766 98.29052734 C70.74384766 98.29052734 65.79384766 98.29052734 60.69384766 98.29052734 C59.40790893 94.50160075 58.12476477 90.71190207 56.84863281 86.91967773 C56.41373537 85.63006575 55.97722344 84.34099706 55.5390625 83.05249023 C54.90932191 81.19968204 54.28587509 79.34473845 53.66259766 77.48974609 C53.28554687 76.3743042 52.90849609 75.2588623 52.52001953 74.10961914 C51.69384766 71.29052734 51.69384766 71.29052734 51.69384766 68.29052734 C32.55384766 68.29052734 13.41384766 68.29052734 -6.30615234 68.29052734 C-5.30615234 61.29052734 -5.30615234 61.29052734 -3.30615234 54.29052734 C13.19384766 54.29052734 29.69384766 54.29052734 46.69384766 54.29052734 C42.74934563 41.9182925 42.74934563 41.9182925 38.79541016 29.54907227 C38.30288025 27.99815557 37.81067079 26.44713706 37.31884766 24.89599609 C37.05974609 24.09085571 36.80064453 23.28571533 36.53369141 22.45617676 C35.53769593 19.30367323 34.69384766 16.61798835 34.69384766 13.29052734 C23.47384766 13.62052734 12.25384766 13.95052734 0.69384766 14.29052734 C-0.92005859 19.34880859 -2.53396484 24.40708984 -4.19677734 29.61865234 C-5.2266407 32.84524189 -6.2565497 36.07181673 -7.28662109 39.29833984 C-8.91743379 44.40659748 -10.54808786 49.51490534 -12.17773438 54.62353516 C-13.49329802 58.74753849 -14.80962545 62.87129735 -16.12645721 66.99489594 C-16.62581696 68.55906446 -17.12491294 70.12331723 -17.62372589 71.68766022 C-20.45813589 80.57608243 -23.33382478 89.44693546 -26.30615234 98.29052734 C-31.25615234 98.29052734 -36.20615234 98.29052734 -41.30615234 98.29052734 C-39.73155276 90.32867548 -37.28090457 82.73911251 -34.72802734 75.04443359 C-34.27406622 73.66564343 -33.82048087 72.28672949 -33.36724854 70.90769958 C-32.17659203 67.28844784 -30.98072221 63.67093985 -29.78375244 60.05377197 C-28.58610726 56.43129968 -27.39362008 52.80713055 -26.20068359 49.18310547 C-24.81957176 44.98777933 -23.4368085 40.79303154 -22.04577637 36.60098267 C-21.60454559 35.2711071 -21.1633422 33.94122245 -20.72216797 32.61132812 C-20.51090019 31.97447901 -20.29963242 31.33762989 -20.08196259 30.68148232 C-18.84192238 26.93499127 -17.62817246 23.18123989 -16.43701172 19.41894531 C-16.1681012 18.57984116 -15.89919067 17.740737 -15.62213135 16.87620544 C-15.15372057 15.41080892 -14.69324839 13.94283225 -14.24359131 12.47157288 C-12.722498 7.75100515 -10.81122724 3.79441422 -6.44473267 1.17304993 C-4.12956337 0.21765481 -2.49452258 0.0258067 0 0 Z " fill="#000000" transform="translate(162.30615234375,0.70947265625)"/>
<path d="M0 0 C0.99112793 -0.00622879 1.98225586 -0.01245758 3.00341797 -0.01887512 C4.07221191 -0.00966537 5.14100586 -0.00045563 6.2421875 0.0090332 C7.88985107 0.00828545 7.88985107 0.00828545 9.57080078 0.00752258 C11.89422412 0.00986408 14.21764995 0.01959697 16.54101562 0.03613281 C20.10309464 0.05972113 23.66442527 0.05669461 27.2265625 0.05004883 C29.48177531 0.05562559 31.73698496 0.06273545 33.9921875 0.0715332 C35.06098145 0.0706218 36.12977539 0.06971039 37.23095703 0.06877136 C38.22208496 0.07830338 39.21321289 0.08783539 40.234375 0.09765625 C41.10690918 0.10226364 41.97944336 0.10687103 42.87841797 0.11161804 C45.1171875 0.37231445 45.1171875 0.37231445 48.1171875 2.37231445 C48.79014076 6.64627921 48.58000801 10.98921553 48.5546875 15.30981445 C48.5846582 17.11869141 48.5846582 17.11869141 48.61523438 18.96411133 C48.61458984 20.1184668 48.61394531 21.27282227 48.61328125 22.4621582 C48.61606079 24.05338501 48.61606079 24.05338501 48.61889648 25.67675781 C48.1171875 28.37231445 48.1171875 28.37231445 46.38305664 30.19873047 C43.91808138 31.47543945 42.1242285 31.85709085 39.3671875 32.05981445 C38.56796875 32.12555664 37.76875 32.19129883 36.9453125 32.2590332 C36.34203125 32.29641602 35.73875 32.33379883 35.1171875 32.37231445 C35.51099609 32.87682129 35.90480469 33.38132813 36.31054688 33.90112305 C38.08442361 36.17934757 39.85087252 38.46322315 41.6171875 40.74731445 C42.23722656 41.54137695 42.85726562 42.33543945 43.49609375 43.15356445 C44.08261719 43.91411133 44.66914063 44.6746582 45.2734375 45.45825195 C45.81806641 46.15998535 46.36269531 46.86171875 46.92382812 47.5847168 C48.1171875 49.37231445 48.1171875 49.37231445 48.1171875 51.37231445 C44.97265625 51.7590332 44.97265625 51.7590332 41.1171875 51.37231445 C38.84407566 49.31597619 37.23323323 47.5904071 35.4296875 45.18481445 C34.97013672 44.60666992 34.51058594 44.02852539 34.03710938 43.43286133 C33.13615539 42.29542299 32.24533724 41.14986964 31.36572266 39.99584961 C30.20916327 38.49191533 28.99912747 37.02951874 27.78515625 35.5715332 C26.1171875 33.37231445 26.1171875 33.37231445 26.1171875 31.37231445 C18.5271875 31.37231445 10.9371875 31.37231445 3.1171875 31.37231445 C3.1171875 29.39231445 3.1171875 27.41231445 3.1171875 25.37231445 C15.9871875 25.37231445 28.8571875 25.37231445 42.1171875 25.37231445 C42.1171875 19.10231445 42.1171875 12.83231445 42.1171875 6.37231445 C27.5971875 6.37231445 13.0771875 6.37231445 -1.8828125 6.37231445 C-1.8828125 21.22231445 -1.8828125 36.07231445 -1.8828125 51.37231445 C-3.8628125 51.37231445 -5.8428125 51.37231445 -7.8828125 51.37231445 C-7.95877438 44.59138145 -8.011375 37.81055785 -8.04760742 31.02929688 C-8.06270926 28.72163798 -8.08319219 26.41400784 -8.10913086 24.10644531 C-8.14545225 20.79265246 -8.16252486 17.47923853 -8.17578125 14.1652832 C-8.19126511 13.13082565 -8.20674896 12.0963681 -8.22270203 11.03056335 C-8.22292862 10.06979385 -8.22315521 9.10902435 -8.22338867 8.11914062 C-8.23005051 7.27308762 -8.23671234 6.42703461 -8.24357605 5.55534363 C-7.8828125 3.37231445 -7.8828125 3.37231445 -6.66670227 1.59890747 C-4.32049625 -0.01433118 -2.83762953 -0.002047 0 0 Z " fill="#000000" transform="translate(384.8828125,111.627685546875)"/>
<path d="M0 0 C1.98 0 3.96 0 6 0 C6 14.85 6 29.7 6 45 C16.89 45 27.78 45 39 45 C39 37.08 39 29.16 39 21 C29.43 21 19.86 21 10 21 C10 19.02 10 17.04 10 15 C14.50229474 14.90110698 19.00395727 14.82852291 23.50708008 14.78027344 C25.03876762 14.7601602 26.57037839 14.7328655 28.10180664 14.69824219 C30.30374073 14.64970685 32.50465982 14.62703004 34.70703125 14.609375 C35.73374687 14.57840729 35.73374687 14.57840729 36.78120422 14.54681396 C39.81716336 14.54538176 41.56795386 14.6357687 43.92871094 16.62597656 C46.22047773 21.70463206 45.46770838 27.52953639 45.4375 33 C45.4674707 34.92585938 45.4674707 34.92585938 45.49804688 36.890625 C45.49740234 38.12296875 45.49675781 39.3553125 45.49609375 40.625 C45.49887329 42.31496094 45.49887329 42.31496094 45.50170898 44.0390625 C45 47 45 47 43.49047852 49.36743164 C39.97472386 51.67209308 36.72232197 51.55494701 32.65625 51.49609375 C31.44708923 51.4982766 31.44708923 51.4982766 30.21350098 51.50050354 C28.51225158 51.49884643 26.8109869 51.48730599 25.10986328 51.46655273 C22.50879104 51.43759786 19.90975785 51.44594657 17.30859375 51.45898438 C15.65363595 51.45274654 13.99868457 51.44435525 12.34375 51.43359375 C11.56761353 51.43652939 10.79147705 51.43946503 9.99182129 51.44248962 C5.64985245 51.36679185 3.1173199 51.08206355 0 48 C-0.48101807 45.81697083 -0.48101807 45.81697083 -0.45410156 43.25317383 C-0.45379944 42.29240433 -0.45349731 41.33163483 -0.45318604 40.3417511 C-0.43254089 39.30729355 -0.41189575 38.272836 -0.390625 37.20703125 C-0.38496521 36.14586594 -0.37930542 35.08470062 -0.37347412 33.99137878 C-0.35106143 30.59796265 -0.30085449 27.20559765 -0.25 23.8125 C-0.2299414 21.51368711 -0.21168952 19.21485769 -0.1953125 16.91601562 C-0.1511807 11.27698436 -0.08421972 5.63856727 0 0 Z " fill="#000000" transform="translate(488,112)"/>
<path d="M0 0 C1.59242324 0.00079071 3.18498419 0.02899237 4.77661133 0.0793457 C5.61581619 0.08642044 6.45502106 0.09349518 7.31965637 0.1007843 C10.00022516 0.12877528 12.67870525 0.19151895 15.35864258 0.25512695 C17.1756697 0.2802039 18.99272957 0.30301813 20.80981445 0.32348633 C25.26439535 0.37861696 29.71741487 0.46491912 34.17114258 0.56762695 C34.17114258 2.54762695 34.17114258 4.52762695 34.17114258 6.56762695 C22.62114258 6.56762695 11.07114258 6.56762695 -0.82885742 6.56762695 C-0.82885742 9.20762695 -0.82885742 11.84762695 -0.82885742 14.56762695 C0.74581299 14.5519165 0.74581299 14.5519165 2.35229492 14.53588867 C6.23979291 14.49974242 10.12727599 14.47674617 14.01489258 14.45776367 C15.69883724 14.44769379 17.38276437 14.43403707 19.06665039 14.41674805 C21.48433758 14.3925427 23.90179401 14.38115399 26.31958008 14.37231445 C27.07483978 14.36199188 27.83009949 14.35166931 28.60824585 14.34103394 C30.46408238 14.34063377 32.31933538 14.44539979 34.17114258 14.56762695 C36.7815647 17.17804908 36.45961045 19.0788388 36.4934082 22.63989258 C36.49018555 23.42041992 36.48696289 24.20094727 36.48364258 25.00512695 C36.49975586 25.78178711 36.51586914 26.55844727 36.5324707 27.35864258 C36.53739274 33.0731304 36.53739274 33.0731304 34.89347839 35.29267883 C31.83251823 37.5585351 28.00911556 36.92829543 24.34692383 36.8605957 C23.48552292 36.85635086 22.62412201 36.85210602 21.73661804 36.84773254 C18.98530827 36.83093944 16.23473095 36.79328651 13.48364258 36.75512695 C11.61841878 36.74008091 9.7531835 36.72639237 7.88793945 36.71411133 C3.3153916 36.68103389 -1.25660873 36.62924756 -5.82885742 36.56762695 C-5.82885742 34.58762695 -5.82885742 32.60762695 -5.82885742 30.56762695 C6.05114258 30.56762695 17.93114258 30.56762695 30.17114258 30.56762695 C30.17114258 26.93762695 30.17114258 23.30762695 30.17114258 19.56762695 C29.15689209 19.58857422 28.1426416 19.60952148 27.09765625 19.63110352 C23.33510452 19.70349666 19.57261434 19.74942343 15.80957031 19.78735352 C14.18088429 19.80747077 12.5522705 19.83476832 10.92382812 19.86938477 C8.582908 19.91790124 6.24294239 19.94059327 3.90161133 19.95825195 C3.17338669 19.97889709 2.44516205 19.99954224 1.69487 20.02081299 C-3.35302287 20.02305419 -3.35302287 20.02305419 -5.78710938 17.69335938 C-7.02220368 15.17309545 -7.2297517 13.43102446 -7.20385742 10.63012695 C-7.2115918 9.79610352 -7.21932617 8.96208008 -7.22729492 8.1027832 C-6.42051025 2.96941801 -5.34825434 0.79287709 0 0 Z " fill="#000000" transform="translate(698.828857421875,126.432373046875)"/>
<path d="M0 0 C0.8098938 -0.00145523 1.6197876 -0.00291046 2.45422363 -0.00440979 C4.16564534 -0.00275064 5.87708193 0.00881263 7.58837891 0.02954102 C10.20930295 0.05848941 12.82820376 0.05015292 15.44921875 0.03710938 C17.11198901 0.04334707 18.77475287 0.05173825 20.4375 0.0625 C21.22193481 0.05956436 22.00636963 0.05662872 22.8145752 0.05360413 C25.73936238 0.10436433 28.1179926 0.16251976 30.70922852 1.60131836 C32.24802183 4.48948641 32.12636796 6.98988893 32.15234375 10.24609375 C32.1575856 10.90061523 32.16282745 11.55513672 32.16822815 12.22949219 C32.17464263 13.61131371 32.17331866 14.99318988 32.16479492 16.375 C32.15627749 18.48926899 32.18505731 20.6008413 32.21679688 22.71484375 C32.21840888 24.05859294 32.21783137 25.40234691 32.21484375 26.74609375 C32.21762329 28.57914063 32.21762329 28.57914063 32.22045898 30.44921875 C31.71875 33.49609375 31.71875 33.49609375 30.18188477 35.39086914 C26.74812695 36.93161863 23.50811372 36.94450065 19.8125 36.9296875 C19.05078491 36.93492935 18.28906982 36.9401712 17.50427246 36.9455719 C15.89722917 36.95198221 14.29013891 36.95066789 12.68310547 36.94213867 C10.22668898 36.93362128 7.77259353 36.96241139 5.31640625 36.99414062 C3.75260486 36.99575265 2.18879937 36.99517509 0.625 36.9921875 C-0.47358337 37.00903847 -0.47358337 37.00903847 -1.59436035 37.02622986 C-4.90126788 36.98110792 -6.9634515 36.70673093 -9.74438477 34.86352539 C-11.74485194 31.78194792 -11.7833669 29.78317008 -11.77734375 26.12109375 C-11.77798828 24.88875 -11.77863281 23.65640625 -11.77929688 22.38671875 C-11.75931641 21.1028125 -11.73933594 19.81890625 -11.71875 18.49609375 C-11.72583984 17.2121875 -11.73292969 15.92828125 -11.74023438 14.60546875 C-11.67782233 5.42609661 -11.67782233 5.42609661 -10.27172852 2.12866211 C-7.16148026 -0.42232894 -3.84296516 -0.05503553 0 0 Z M-5.28125 6.49609375 C-5.28125 14.41609375 -5.28125 22.33609375 -5.28125 30.49609375 C4.94875 30.49609375 15.17875 30.49609375 25.71875 30.49609375 C25.71875 22.57609375 25.71875 14.65609375 25.71875 6.49609375 C15.48875 6.49609375 5.25875 6.49609375 -5.28125 6.49609375 Z " fill="#000000" transform="translate(449.28125,126.50390625)"/>
<path d="M0 0 C1.18154663 -0.00287018 1.18154663 -0.00287018 2.38696289 -0.00579834 C4.05127278 -0.00715847 5.71559334 -0.00347399 7.37988281 0.00488281 C9.92797669 0.015585 12.47536556 0.00498199 15.0234375 -0.0078125 C16.64062656 -0.00649087 18.25781517 -0.00392842 19.875 0 C21.01884155 -0.00607269 21.01884155 -0.00607269 22.18579102 -0.01226807 C25.97248674 0.02131563 27.70898266 0.1132801 30.9375 2.265625 C31.32568359 5.29077148 31.32568359 5.29077148 31.3359375 9.13671875 C31.33880768 9.81485123 31.34167786 10.4929837 31.34463501 11.19166565 C31.34667722 12.62656488 31.34113627 14.06149185 31.32861328 15.49633789 C31.31258449 17.69155329 31.32844154 19.88492079 31.34765625 22.08007812 C31.34567336 23.4739624 31.34182872 24.86784552 31.3359375 26.26171875 C31.33255371 27.53200928 31.32916992 28.8022998 31.32568359 30.11108398 C30.9375 33.265625 30.9375 33.265625 29.91650391 35.1784668 C26.72836689 36.92985764 23.42023207 36.69229513 19.875 36.6640625 C18.69345337 36.66836777 18.69345337 36.66836777 17.48803711 36.67276001 C15.82372315 36.67480022 14.15938519 36.66927332 12.49511719 36.65673828 C9.94672053 36.64068309 7.39990979 36.65658744 4.8515625 36.67578125 C3.2343715 36.67379881 1.61718148 36.66995511 0 36.6640625 C-1.14384155 36.67317154 -1.14384155 36.67317154 -2.31079102 36.6824646 C-5.18039978 36.64428934 -7.49469055 36.57754895 -10.04150391 35.1784668 C-11.62428329 32.21312092 -11.4520382 29.60255656 -11.4609375 26.26171875 C-11.46380768 25.58262955 -11.46667786 24.90354034 -11.46963501 24.20387268 C-11.47167372 22.77075362 -11.46615723 21.33760662 -11.45361328 19.90454102 C-11.43752994 17.70721546 -11.45347901 15.51172214 -11.47265625 13.31445312 C-11.47067427 11.92187093 -11.46683152 10.52928988 -11.4609375 9.13671875 C-11.45755371 7.86755615 -11.45416992 6.59839355 -11.45068359 5.29077148 C-11.32258301 4.29247314 -11.19448242 3.2941748 -11.0625 2.265625 C-7.30792523 -0.23742484 -4.34684902 -0.02307757 0 0 Z M-5.0625 6.265625 C-5.0625 14.185625 -5.0625 22.105625 -5.0625 30.265625 C4.8375 30.265625 14.7375 30.265625 24.9375 30.265625 C24.9375 22.345625 24.9375 14.425625 24.9375 6.265625 C15.0375 6.265625 5.1375 6.265625 -5.0625 6.265625 Z " fill="#000000" transform="translate(550.0625,126.734375)"/>
<path d="M0 0 C0.80060349 0.00022659 1.60120697 0.00045319 2.42607117 0.00068665 C3.28553848 0.0161705 4.1450058 0.03165436 5.03051758 0.04760742 C6.35591301 0.05397469 6.35591301 0.05397469 7.70808411 0.06047058 C10.53071544 0.07726574 13.35263324 0.11491921 16.17504883 0.15307617 C18.08844998 0.16812194 20.00186231 0.18181053 21.9152832 0.1940918 C26.60631342 0.22717199 31.29681014 0.27895987 35.98754883 0.34057617 C35.98754883 2.32057617 35.98754883 4.30057617 35.98754883 6.34057617 C23.77754883 6.34057617 11.56754883 6.34057617 -1.01245117 6.34057617 C-1.01245117 14.26057617 -1.01245117 22.18057617 -1.01245117 30.34057617 C11.19754883 30.34057617 23.40754883 30.34057617 35.98754883 30.34057617 C35.98754883 32.32057617 35.98754883 34.30057617 35.98754883 36.34057617 C30.50662189 36.41477645 25.02598784 36.46920197 19.54467773 36.50537109 C17.68036811 36.52045031 15.81609391 36.54091678 13.9519043 36.56689453 C11.2709885 36.60331614 8.59054203 36.62031107 5.90942383 36.63354492 C5.07699158 36.64902878 4.24455933 36.66451263 3.38690186 36.6804657 C0.03135571 36.68143986 -2.43813469 36.58980366 -5.5390625 35.24414062 C-7.74398529 32.39546075 -7.51395406 30.15778481 -7.50854492 26.59057617 C-7.51000015 25.93605469 -7.51145538 25.2815332 -7.51295471 24.60717773 C-7.51129697 23.22529645 -7.4997491 21.84339648 -7.47900391 20.46166992 C-7.45004724 18.34759025 -7.45839409 16.23601881 -7.47143555 14.12182617 C-7.46519774 12.778064 -7.45680645 11.43430973 -7.44604492 10.09057617 C-7.43629639 8.86854492 -7.42654785 7.64651367 -7.41650391 6.38745117 C-6.78407275 1.61842349 -4.74924007 -0.04494549 0 0 Z " fill="#000000" transform="translate(653.012451171875,126.659423828125)"/>
<path d="M0 0 C1.98 0 3.96 0 6 0 C6 3.63 6 7.26 6 11 C13.26 11 20.52 11 28 11 C28 12.98 28 14.96 28 17 C20.74 17 13.48 17 6 17 C6 24.92 6 32.84 6 41 C13.26 41 20.52 41 28 41 C28 42.98 28 44.96 28 47 C24.06256167 47.05797565 20.12523281 47.09358789 16.1875 47.125 C15.06794922 47.14175781 13.94839844 47.15851563 12.79492188 47.17578125 C11.72177734 47.18222656 10.64863281 47.18867188 9.54296875 47.1953125 C8.0583313 47.21102295 8.0583313 47.21102295 6.54370117 47.22705078 C4 47 4 47 1 45 C-0.0592918 41.82212459 -0.11458939 39.57411057 -0.09765625 36.23828125 C-0.09443359 35.12001953 -0.09121094 34.00175781 -0.08789062 32.84960938 C-0.07951172 31.68236328 -0.07113281 30.51511719 -0.0625 29.3125 C-0.05798828 28.13365234 -0.05347656 26.95480469 -0.04882812 25.74023438 C-0.03703273 22.82677211 -0.0205727 19.91341137 0 17 C-2.97 17 -5.94 17 -9 17 C-9 15.02 -9 13.04 -9 11 C-6.03 11 -3.06 11 0 11 C0 7.37 0 3.74 0 0 Z " fill="#000000" transform="translate(594,116)"/>
<path d="M0 0 C1.60332791 -0.08121924 3.20784026 -0.13929134 4.8125 -0.1875 C6.15248047 -0.23970703 6.15248047 -0.23970703 7.51953125 -0.29296875 C10 0 10 0 11.63671875 1.04882812 C13.70926818 4.01512738 13.36934087 7.0277346 13.29296875 10.51171875 C13.28872391 11.23994339 13.28447906 11.96816803 13.28010559 12.71846008 C13.26332733 15.04185127 13.22567855 17.3643715 13.1875 19.6875 C13.17245197 21.26365934 13.15876377 22.83983229 13.14648438 24.41601562 C13.11342685 28.27767877 13.06165194 32.13869178 13 36 C11.02 36 9.04 36 7 36 C7 26.1 7 16.2 7 6 C4.69 6 2.38 6 0 6 C0 4.02 0 2.04 0 0 Z " fill="#000000" transform="translate(626,127)"/>
<path d="M0 0 C1.98 0 3.96 0 6 0 C6 2.31 6 4.62 6 7 C4.02 7 2.04 7 0 7 C0 4.69 0 2.38 0 0 Z " fill="#000000" transform="translate(632,114)"/>
    </g>
</svg>
